<svg width="37" height="42" viewBox="0 0 37 42" fill="none" xmlns="http://www.w3.org/2000/svg">
<path d="M36.1116 7.5933H1.46585C1.31187 7.59321 1.16423 7.53201 1.05536 7.42313C0.946485 7.31426 0.885281 7.16662 0.885193 7.01265V3.39966C0.885895 2.74991 1.14432 2.12698 1.60376 1.66754C2.0632 1.2081 2.68613 0.949677 3.33588 0.948975H34.2415C34.8913 0.949677 35.5142 1.2081 35.9736 1.66754C36.4331 2.12698 36.6915 2.74991 36.6922 3.39966V7.01265C36.6921 7.16662 36.6309 7.31426 36.522 7.42313C36.4132 7.53201 36.2655 7.59321 36.1116 7.5933ZM2.0465 6.43199H35.5309V3.39966C35.5305 3.05783 35.3945 2.73013 35.1528 2.48842C34.9111 2.2467 34.5834 2.11072 34.2415 2.11028H3.33588C2.99402 2.11063 2.66627 2.24659 2.42454 2.48832C2.18281 2.73005 2.04685 3.0578 2.0465 3.39966V6.43199Z" fill="#2E3F73"/>
<path d="M33.1463 4.85044C33.0705 4.85085 32.9953 4.83609 32.9252 4.80703C32.8551 4.77797 32.7915 4.73519 32.7382 4.68122C32.7103 4.65442 32.6858 4.62434 32.6652 4.59163C32.6424 4.56146 32.6245 4.52787 32.6121 4.49209C32.5956 4.45746 32.5845 4.42055 32.5789 4.3826C32.5711 4.34548 32.5666 4.30772 32.5657 4.26979C32.5659 4.18381 32.5852 4.09896 32.6222 4.02137C32.6592 3.94377 32.713 3.87535 32.7797 3.82107C32.8464 3.76678 32.9242 3.72798 33.0077 3.70746C33.0912 3.68694 33.1782 3.68521 33.2625 3.70241C33.2992 3.7084 33.335 3.71957 33.3686 3.73559C33.4044 3.74792 33.438 3.76584 33.4682 3.78867C33.5008 3.80815 33.5309 3.83155 33.5578 3.85835C33.6664 3.96772 33.7272 4.11566 33.727 4.26979C33.7271 4.30762 33.7238 4.34538 33.717 4.3826C33.71 4.42019 33.6988 4.4569 33.6838 4.49209C33.6688 4.52664 33.6511 4.55993 33.6308 4.59163C33.5882 4.65633 33.5329 4.71165 33.4682 4.75422C33.4372 4.77581 33.4038 4.79363 33.3686 4.8073C33.3344 4.82184 33.2989 4.83295 33.2625 4.84048C33.2241 4.84709 33.1852 4.85042 33.1463 4.85044Z" fill="#5E58EA"/>
<path d="M30.7474 4.84943C30.6715 4.84984 30.5964 4.83508 30.5263 4.80602C30.4562 4.77696 30.3926 4.73419 30.3393 4.68021C30.2846 4.62654 30.2412 4.56251 30.2116 4.49186C30.1819 4.42122 30.1667 4.34538 30.1667 4.26878C30.1667 4.19217 30.1819 4.11633 30.2116 4.04569C30.2412 3.97505 30.2846 3.91102 30.3393 3.85734C30.4077 3.79115 30.4911 3.74242 30.5823 3.71527C30.6736 3.68813 30.7701 3.68337 30.8635 3.7014C30.9003 3.7074 30.9361 3.71857 30.9697 3.73458C31.0062 3.74757 31.0408 3.76543 31.0726 3.78767C31.1035 3.80802 31.1324 3.83136 31.1588 3.85734C31.2673 3.96682 31.3281 4.11468 31.3281 4.26878C31.3281 4.42287 31.2673 4.57074 31.1588 4.68021C31.1316 4.70631 31.1028 4.73069 31.0726 4.75321C31.0393 4.77288 31.005 4.7906 30.9697 4.8063C30.9355 4.82083 30.8999 4.83194 30.8635 4.83948C30.8252 4.84608 30.7863 4.84941 30.7474 4.84943Z" fill="#5E58EA"/>
<path d="M28.3483 4.85021C28.3105 4.85005 28.2727 4.84672 28.2355 4.84026C28.1991 4.83272 28.1635 4.82161 28.1293 4.80708C28.0934 4.79272 28.0589 4.77494 28.0264 4.75399C27.9962 4.73147 27.9674 4.70709 27.9402 4.68099C27.8863 4.62672 27.8435 4.56248 27.8141 4.49187C27.7991 4.45668 27.788 4.41996 27.7809 4.38237C27.7741 4.34515 27.7708 4.30739 27.7709 4.26956C27.771 4.23174 27.7743 4.19399 27.7809 4.15675C27.7889 4.11939 27.8 4.08277 27.8141 4.04725C27.8292 4.01275 27.8469 3.97946 27.8672 3.94771C27.911 3.88615 27.9649 3.83232 28.0264 3.78845C28.0582 3.76621 28.0928 3.74835 28.1293 3.73536C28.1629 3.71935 28.1987 3.70818 28.2355 3.70218C28.3292 3.68317 28.4262 3.68777 28.5177 3.71557C28.6092 3.74338 28.6924 3.7935 28.7597 3.86144C28.8137 3.91476 28.8565 3.97833 28.8855 4.04842C28.9146 4.1185 28.9293 4.19369 28.9289 4.26956C28.9291 4.30739 28.9257 4.34515 28.919 4.38237C28.9119 4.41996 28.9008 4.45668 28.8858 4.49187C28.8564 4.56248 28.8136 4.62672 28.7597 4.68099C28.7059 4.73528 28.6418 4.77823 28.5711 4.80729C28.5005 4.83636 28.4247 4.85095 28.3483 4.85021Z" fill="#5E58EA"/>
<path d="M25.9515 4.85198H4.43023C4.27623 4.85198 4.12854 4.7908 4.01965 4.68191C3.91075 4.57302 3.84958 4.42533 3.84958 4.27133C3.84958 4.11733 3.91075 3.96964 4.01965 3.86074C4.12854 3.75185 4.27623 3.69067 4.43023 3.69067H25.9515C26.1055 3.69067 26.2532 3.75185 26.3621 3.86074C26.471 3.96964 26.5322 4.11733 26.5322 4.27133C26.5322 4.42533 26.471 4.57302 26.3621 4.68191C26.2532 4.7908 26.1055 4.85198 25.9515 4.85198Z" fill="#5E58EA"/>
<path d="M9.46212 15.1566H4.55477C4.40077 15.1566 4.25308 15.0955 4.14419 14.9866C4.0353 14.8777 3.97412 14.73 3.97412 14.576V9.66732C3.97412 9.51332 4.0353 9.36563 4.14419 9.25674C4.25308 9.14785 4.40077 9.08667 4.55477 9.08667H9.46212C9.61609 9.08676 9.76373 9.14796 9.8726 9.25684C9.98148 9.36571 10.0427 9.51335 10.0428 9.66732V14.576C10.0427 14.73 9.98148 14.8776 9.8726 14.9865C9.76373 15.0954 9.61609 15.1566 9.46212 15.1566ZM5.1341 13.9953H8.88146V10.248H5.1341V13.9953Z" fill="#2E3F73"/>
<path d="M9.46212 22.7357H4.55477C4.47851 22.7358 4.40298 22.7208 4.33252 22.6916C4.26205 22.6625 4.19802 22.6197 4.14409 22.5658C4.09017 22.5118 4.0474 22.4478 4.01823 22.3774C3.98907 22.3069 3.97408 22.2314 3.97412 22.1551V17.2464C3.97412 17.0924 4.0353 16.9447 4.14419 16.8358C4.25308 16.7269 4.40078 16.6658 4.55477 16.6658H9.46212C9.61609 16.6659 9.76373 16.7271 9.8726 16.8359C9.98148 16.9448 10.0427 17.0925 10.0428 17.2464V22.1551C10.0428 22.3091 9.98159 22.4568 9.8727 22.5657C9.76381 22.6746 9.61612 22.7357 9.46212 22.7357ZM5.1341 21.5744H8.88146V17.8271H5.1341V21.5744Z" fill="#2E3F73"/>
<path d="M9.46212 30.3148H4.55477C4.40078 30.3148 4.25308 30.2537 4.14419 30.1448C4.0353 30.0359 3.97412 29.8882 3.97412 29.7342V24.8255C3.97408 24.7493 3.98907 24.6737 4.01823 24.6033C4.0474 24.5328 4.09017 24.4688 4.14409 24.4148C4.19802 24.3609 4.26205 24.3181 4.33252 24.289C4.40298 24.2598 4.47851 24.2448 4.55477 24.2449H9.46212C9.61612 24.2449 9.76381 24.306 9.8727 24.4149C9.98159 24.5238 10.0428 24.6715 10.0428 24.8255V29.7342C10.0427 29.8882 9.98148 30.0358 9.8726 30.1447C9.76373 30.2536 9.61609 30.3148 9.46212 30.3148ZM5.1341 29.1535H8.88146V25.4062H5.1341V29.1535Z" fill="#2E3F73"/>
<path d="M18.6461 10.248H14.69C14.536 10.248 14.3883 10.1868 14.2794 10.0779C14.1705 9.96901 14.1093 9.82132 14.1093 9.66732C14.1093 9.51332 14.1705 9.36563 14.2794 9.25674C14.3883 9.14785 14.536 9.08667 14.69 9.08667H18.6461C18.8001 9.08667 18.9478 9.14785 19.0566 9.25674C19.1655 9.36563 19.2267 9.51332 19.2267 9.66732C19.2267 9.82132 19.1655 9.96901 19.0566 10.0779C18.9478 10.1868 18.8001 10.248 18.6461 10.248Z" fill="#2E3F73"/>
<path d="M33.1474 12.7104H14.69C14.536 12.7104 14.3883 12.6492 14.2794 12.5403C14.1705 12.4314 14.1093 12.2837 14.1093 12.1297C14.1093 11.9757 14.1705 11.828 14.2794 11.7191C14.3883 11.6102 14.536 11.5491 14.69 11.5491H33.1474C33.3014 11.5491 33.4491 11.6102 33.558 11.7191C33.6669 11.828 33.7281 11.9757 33.7281 12.1297C33.7281 12.2837 33.6669 12.4314 33.558 12.5403C33.4491 12.6492 33.3014 12.7104 33.1474 12.7104Z" fill="#2E3F73"/>
<path d="M23.9184 15.164H14.69C14.536 15.164 14.3883 15.1028 14.2794 14.9939C14.1705 14.885 14.1093 14.7373 14.1093 14.5833C14.1093 14.4293 14.1705 14.2816 14.2794 14.1728C14.3883 14.0639 14.536 14.0027 14.69 14.0027H23.9184C24.0724 14.0027 24.2201 14.0639 24.329 14.1728C24.4379 14.2816 24.499 14.4293 24.499 14.5833C24.499 14.7373 24.4379 14.885 24.329 14.9939C24.2201 15.1028 24.0724 15.164 23.9184 15.164Z" fill="#2E3F73"/>
<path d="M18.6461 17.8271H14.69C14.536 17.8271 14.3883 17.7659 14.2794 17.657C14.1705 17.5481 14.1093 17.4004 14.1093 17.2464C14.1093 17.0924 14.1705 16.9447 14.2794 16.8358C14.3883 16.7269 14.536 16.6658 14.69 16.6658H18.6461C18.8001 16.6658 18.9478 16.7269 19.0566 16.8358C19.1655 16.9447 19.2267 17.0924 19.2267 17.2464C19.2267 17.4004 19.1655 17.5481 19.0566 17.657C18.9478 17.7659 18.8001 17.8271 18.6461 17.8271Z" fill="#2E3F73"/>
<path d="M34.2379 32.9798H24.0715C23.9175 32.9798 23.7698 32.9186 23.6609 32.8097C23.552 32.7008 23.4908 32.5532 23.4908 32.3992C23.4908 32.2452 23.552 32.0975 23.6609 31.9886C23.7698 31.8797 23.9175 31.8185 24.0715 31.8185H34.2379C34.5811 31.8185 34.9102 31.6822 35.1529 31.4395C35.3956 31.1968 35.5319 30.8677 35.5319 30.5245V7.59368H2.0465V30.5245C2.0465 30.8677 2.18283 31.1968 2.42551 31.4395C2.66819 31.6822 2.99733 31.8185 3.34052 31.8185H13.5003C13.6543 31.8185 13.802 31.8797 13.9109 31.9886C14.0198 32.0975 14.0809 32.2452 14.0809 32.3992C14.0809 32.5532 14.0198 32.7008 13.9109 32.8097C13.802 32.9186 13.6543 32.9798 13.5003 32.9798H3.34052C2.68955 32.9791 2.06543 32.7202 1.60512 32.2599C1.14481 31.7996 0.885895 31.1755 0.885193 30.5245V7.01303C0.885193 6.85903 0.946368 6.71134 1.05526 6.60244C1.16416 6.49355 1.31185 6.43237 1.46585 6.43237H36.1126C36.2666 6.43237 36.4142 6.49355 36.5231 6.60244C36.632 6.71134 36.6932 6.85903 36.6932 7.01303V30.5245C36.6925 31.1755 36.4336 31.7996 35.9733 32.2599C35.513 32.7202 34.8889 32.9791 34.2379 32.9798Z" fill="#2E3F73"/>
<path d="M22.961 41.9269H14.4566C14.1379 41.9287 13.8231 41.8562 13.5373 41.7152C13.2515 41.5742 13.0024 41.3686 12.8099 41.1147C11.8814 39.8047 11.4008 38.2299 11.4395 36.6247C11.441 35.6153 11.6496 34.6168 12.0525 33.6913C12.4555 32.7657 13.0441 31.9327 13.782 31.2439C15.1351 29.9847 16.9128 29.2816 18.7611 29.2745C20.6094 29.2674 22.3925 29.9569 23.7552 31.2056C25.1178 32.4544 25.96 34.1707 26.1139 36.0125C26.2677 37.8544 25.7221 39.6867 24.5855 41.1442C24.3913 41.3887 24.1442 41.5861 23.8629 41.7217C23.5816 41.8572 23.2733 41.9274 22.961 41.9269ZM18.7853 30.4356C17.221 30.4308 15.7141 31.0243 14.5734 32.0946C13.952 32.6747 13.4564 33.376 13.1171 34.1554C12.7778 34.9347 12.6021 35.7754 12.6008 36.6254C12.563 37.9812 12.9633 39.313 13.7426 40.4232C13.8268 40.5318 13.9352 40.6194 14.0591 40.679C14.183 40.7385 14.3191 40.7684 14.4566 40.7663H22.961C23.0969 40.7673 23.2314 40.7375 23.3542 40.6793C23.477 40.621 23.5851 40.5357 23.6704 40.4298C24.3597 39.5464 24.7962 38.4924 24.9333 37.3803C25.0704 36.2682 24.9029 35.1397 24.4488 34.1153C23.9946 33.091 23.2708 32.2091 22.3546 31.564C21.4385 30.9188 20.3643 30.5346 19.2468 30.4522C19.0922 30.4414 18.9383 30.4359 18.7853 30.4356Z" fill="#5E58EA"/>
<path d="M23.0191 31.9176C22.8871 31.9177 22.7589 31.8729 22.6558 31.7905C22.0755 31.3237 21.4147 30.9669 20.7061 30.7377C20.5892 30.6999 20.4873 30.6261 20.415 30.5267C20.3427 30.4274 20.3037 30.3078 20.3036 30.1849V25.1263C20.3036 24.9274 20.2645 24.7306 20.1884 24.5469C20.1123 24.3632 20.0008 24.1963 19.8602 24.0557C19.7196 23.9151 19.5527 23.8036 19.369 23.7275C19.1853 23.6514 18.9884 23.6123 18.7896 23.6123C18.5908 23.6123 18.3939 23.6514 18.2102 23.7275C18.0265 23.8036 17.8596 23.9151 17.7191 24.0557C17.5785 24.1963 17.4669 24.3632 17.3909 24.5469C17.3148 24.7306 17.2756 24.9274 17.2756 25.1263V30.1849C17.2755 30.3078 17.2366 30.4274 17.1642 30.5267C17.0919 30.6261 16.99 30.6999 16.8731 30.7377C16.1645 30.9669 15.5038 31.3237 14.9235 31.7905C14.8381 31.8593 14.7349 31.9025 14.626 31.9152C14.5171 31.9278 14.4068 31.9093 14.3079 31.8618C14.209 31.8144 14.1256 31.7399 14.0673 31.647C14.009 31.5541 13.9782 31.4466 13.9785 31.3369V25.1263C13.9634 24.4851 14.0767 23.8475 14.3117 23.2507C14.5466 22.654 14.8985 22.1103 15.3466 21.6515C15.7947 21.1927 16.33 20.8282 16.9211 20.5793C17.5121 20.3304 18.147 20.2021 18.7883 20.2021C19.4296 20.2021 20.0645 20.3304 20.6555 20.5793C21.2465 20.8282 21.7819 21.1927 22.23 21.6515C22.6781 22.1103 23.03 22.654 23.2649 23.2507C23.4999 23.8475 23.6131 24.4851 23.5981 25.1263V31.3369C23.5982 31.4132 23.5832 31.4887 23.5541 31.5592C23.525 31.6296 23.4822 31.6937 23.4283 31.7476C23.3744 31.8015 23.3104 31.8443 23.24 31.8735C23.1695 31.9026 23.094 31.9176 23.0178 31.9176H23.0191ZM21.4649 29.7755C21.8009 29.906 22.1267 30.0615 22.4394 30.2407V25.1263C22.4526 24.6389 22.3679 24.1538 22.1905 23.6996C22.0131 23.2455 21.7464 22.8315 21.4063 22.4821C21.0662 22.1327 20.6596 21.855 20.2104 21.6654C19.7612 21.4757 19.2785 21.378 18.7909 21.378C18.3034 21.378 17.8207 21.4757 17.3715 21.6654C16.9223 21.855 16.5157 22.1327 16.1756 22.4821C15.8355 22.8315 15.5688 23.2455 15.3914 23.6996C15.214 24.1538 15.1293 24.6389 15.1425 25.1263V30.2407C15.4548 30.0618 15.7801 29.9065 16.1156 29.7761V25.1263C16.1156 24.4167 16.3975 23.7363 16.8992 23.2345C17.4009 22.7328 18.0814 22.451 18.7909 22.451C19.5005 22.451 20.181 22.7328 20.6827 23.2345C21.1844 23.7363 21.4663 24.4167 21.4663 25.1263L21.4649 29.7755Z" fill="#5E58EA"/>
<path d="M19.735 38.6024H17.8438C17.6898 38.6023 17.5422 38.5411 17.4333 38.4322C17.3244 38.3233 17.2632 38.1757 17.2631 38.0217V36.1411C16.8936 35.7528 16.6881 35.237 16.6894 34.701C16.6894 34.1441 16.9107 33.61 17.3045 33.2161C17.6983 32.8223 18.2325 32.6011 18.7894 32.6011C19.3463 32.6011 19.8805 32.8223 20.2743 33.2161C20.6681 33.61 20.8894 34.1441 20.8894 34.701C20.8907 35.237 20.6852 35.7528 20.3157 36.1411V38.0217C20.3156 38.1757 20.2544 38.3233 20.1455 38.4322C20.0366 38.5411 19.889 38.6023 19.735 38.6024ZM18.4244 37.4411H19.1544V35.8869C19.1544 35.7994 19.1742 35.713 19.2123 35.6343C19.2504 35.5555 19.3058 35.4863 19.3744 35.432C19.4847 35.345 19.5738 35.2341 19.6351 35.1077C19.6964 34.9812 19.7281 34.8425 19.7281 34.702C19.7281 34.4531 19.6292 34.2143 19.4531 34.0383C19.2771 33.8623 19.0383 33.7634 18.7894 33.7634C18.5405 33.7634 18.3017 33.8623 18.1257 34.0383C17.9496 34.2143 17.8507 34.4531 17.8507 34.702C17.8507 34.8425 17.8824 34.9812 17.9437 35.1077C18.005 35.2341 18.0941 35.345 18.2044 35.432C18.273 35.4863 18.3284 35.5555 18.3665 35.6343C18.4046 35.713 18.4244 35.7994 18.4244 35.8869V37.4411Z" fill="#5E58EA"/>
</svg>
