<svg width="39" height="50" viewBox="0 0 39 50" fill="none" xmlns="http://www.w3.org/2000/svg">
<g clip-path="url(#clip0_38_1748)">
<path d="M30.0987 36.0067H9.0486C8.04036 36.0056 7.07373 35.6046 6.36075 34.8917C5.64778 34.1788 5.2467 33.2123 5.24548 32.204V17.4458C5.2467 16.4375 5.64778 15.4709 6.36075 14.758C7.07373 14.0451 8.04036 13.6442 9.0486 13.6431H30.0987C31.107 13.6442 32.0736 14.0451 32.7866 14.758C33.4996 15.4709 33.9007 16.4375 33.9019 17.4458V32.204C33.9007 33.2123 33.4996 34.1788 32.7866 34.8917C32.0736 35.6046 31.107 36.0056 30.0987 36.0067ZM9.0486 15.1002C8.42665 15.1007 7.83032 15.348 7.39049 15.7878C6.95067 16.2275 6.70328 16.8238 6.70262 17.4458V32.204C6.70328 32.826 6.95067 33.4223 7.39049 33.862C7.83032 34.3017 8.42665 34.549 9.0486 34.5496H30.0987C30.7207 34.549 31.317 34.3017 31.7569 33.862C32.1967 33.4223 32.4441 32.826 32.4447 32.204V17.4458C32.4441 16.8238 32.1967 16.2275 31.7569 15.7878C31.317 15.348 30.7207 15.1007 30.0987 15.1002H9.0486Z" fill="#2E3F73"/>
<path d="M28.8075 15.1014H10.3402C10.147 15.1014 9.96166 15.0246 9.82503 14.888C9.68839 14.7513 9.61163 14.566 9.61163 14.3728V10.3016C9.61163 7.65942 10.6612 5.12549 12.5295 3.25722C14.3978 1.38894 16.9317 0.339355 19.5738 0.339355C22.216 0.339355 24.7499 1.38894 26.6182 3.25722C28.4865 5.12549 29.536 7.65942 29.536 10.3016V14.3728C29.536 14.566 29.4593 14.7513 29.3227 14.888C29.186 15.0246 29.0007 15.1014 28.8075 15.1014ZM11.0688 13.6442H28.0789V10.3016C28.0789 8.04588 27.1828 5.88258 25.5878 4.28757C23.9928 2.69256 21.8295 1.79649 19.5738 1.79649C17.3182 1.79649 15.1549 2.69256 13.5598 4.28757C11.9648 5.88258 11.0688 8.04588 11.0688 10.3016V13.6442Z" fill="#2E3F73"/>
<path d="M24.8497 15.1024H14.2976C14.1043 15.1024 13.919 15.0256 13.7824 14.889C13.6458 14.7524 13.569 14.5671 13.569 14.3738V10.4121C13.569 8.81958 14.2016 7.29227 15.3277 6.16619C16.4538 5.0401 17.9811 4.40747 19.5736 4.40747C21.1662 4.40747 22.6935 5.0401 23.8196 6.16619C24.9456 7.29227 25.5783 8.81958 25.5783 10.4121V14.3743C25.5782 14.5674 25.5013 14.7526 25.3647 14.8892C25.2281 15.0257 25.0429 15.1024 24.8497 15.1024ZM15.0245 13.6453H24.1211V10.4121C24.1211 9.20603 23.642 8.04936 22.7892 7.19654C21.9364 6.34371 20.7797 5.8646 19.5736 5.8646C18.3676 5.8646 17.2109 6.34371 16.3581 7.19654C15.5052 8.04936 15.0261 9.20603 15.0261 10.4121L15.0245 13.6453Z" fill="#2E3F73"/>
<path d="M19.5738 31.5301C18.9377 31.5294 18.3278 31.2764 17.8779 30.8266C17.428 30.3768 17.1749 29.7669 17.1742 29.1308V26.5542C16.3311 26.0322 15.6812 25.2497 15.323 24.3251C14.9648 23.4005 14.9178 22.3844 15.1891 21.4307C15.4604 20.477 16.0353 19.6377 16.8266 19.0402C17.6178 18.4427 18.5823 18.1194 19.5738 18.1194C20.5654 18.1194 21.5299 18.4427 22.3211 19.0402C23.1124 19.6377 23.6873 20.477 23.9586 21.4307C24.2299 22.3844 24.1829 23.4005 23.8247 24.3251C23.4665 25.2497 22.8166 26.0322 21.9735 26.5542V29.1308C21.9728 29.7669 21.7197 30.3768 21.2698 30.8266C20.8199 31.2764 20.21 31.5294 19.5738 31.5301ZM19.5738 19.5816C18.872 19.581 18.1908 19.8186 17.6416 20.2556C17.0924 20.6926 16.7079 21.3031 16.5508 21.9871C16.3937 22.6711 16.4735 23.3882 16.777 24.021C17.0805 24.6538 17.5899 25.1648 18.2216 25.4705C18.3445 25.5303 18.4481 25.6234 18.5205 25.7393C18.5929 25.8552 18.6313 25.9891 18.6313 26.1258V29.132C18.6313 29.382 18.7306 29.6218 18.9074 29.7985C19.0841 29.9753 19.3239 30.0746 19.5738 30.0746C19.8238 30.0746 20.0636 29.9753 20.2403 29.7985C20.4171 29.6218 20.5164 29.382 20.5164 29.132V26.1245C20.5164 25.9879 20.5548 25.8539 20.6272 25.7381C20.6996 25.6222 20.8032 25.529 20.9261 25.4692C21.5578 25.1636 22.0672 24.6525 22.3707 24.0198C22.6742 23.387 22.754 22.6699 22.5969 21.9859C22.4398 21.3018 22.0553 20.6914 21.5061 20.2544C20.9569 19.8174 20.2757 19.5797 19.5738 19.5803V19.5816Z" fill="#2E3F73"/>
<path d="M4.02141 45.9685C3.82819 45.9685 3.64287 45.8918 3.50624 45.7552C3.36961 45.6185 3.29285 45.4332 3.29285 45.24V39.0472C3.29285 38.8539 3.36961 38.6686 3.50624 38.532C3.64287 38.3954 3.82819 38.3186 4.02141 38.3186C4.21464 38.3186 4.39995 38.3954 4.53659 38.532C4.67322 38.6686 4.74998 38.8539 4.74998 39.0472V45.24C4.74987 45.4332 4.67307 45.6184 4.53647 45.755C4.39986 45.8916 4.21461 45.9684 4.02141 45.9685Z" fill="#5E58EA"/>
<path d="M6.40005 44.8521C6.22981 44.8522 6.06493 44.7925 5.93418 44.6835L1.1756 40.7205C1.02709 40.5969 0.933794 40.4193 0.916227 40.2268C0.89866 40.0343 0.958265 39.8428 1.08193 39.6943C1.2056 39.5458 1.38319 39.4525 1.57565 39.4349C1.76811 39.4173 1.95966 39.4769 2.10817 39.6006L6.86675 43.5636C6.98189 43.6594 7.06468 43.7884 7.10386 43.933C7.14303 44.0776 7.13667 44.2308 7.08565 44.3717C7.03464 44.5125 6.94144 44.6342 6.81875 44.7202C6.69607 44.8062 6.54986 44.8522 6.40005 44.8521Z" fill="#5E58EA"/>
<path d="M1.64236 44.8521C1.49255 44.8522 1.34635 44.8062 1.22366 44.7202C1.10097 44.6342 1.00777 44.5125 0.956756 44.3717C0.905739 44.2308 0.899383 44.0776 0.938555 43.933C0.977728 43.7884 1.06052 43.6594 1.17566 43.5636L5.93424 39.6006C6.00778 39.5394 6.09265 39.4932 6.18402 39.4648C6.27539 39.4364 6.37147 39.4262 6.46676 39.4349C6.56206 39.4436 6.6547 39.471 6.73942 39.5155C6.82413 39.56 6.89925 39.6207 6.96048 39.6943C7.02171 39.7678 7.06786 39.8527 7.09629 39.9441C7.12473 40.0354 7.13488 40.1315 7.12618 40.2268C7.11749 40.3221 7.0901 40.4147 7.0456 40.4995C7.0011 40.5842 6.94034 40.6593 6.86681 40.7205L2.10823 44.6835C1.97748 44.7925 1.81261 44.8522 1.64236 44.8521Z" fill="#5E58EA"/>
<path d="M6.40035 48.8768H1.64177C1.44855 48.8768 1.26323 48.8 1.1266 48.6634C0.989967 48.5268 0.913208 48.3415 0.913208 48.1482C0.913208 47.955 0.989967 47.7697 1.1266 47.6331C1.26323 47.4964 1.44855 47.4197 1.64177 47.4197H6.40035C6.59358 47.4197 6.77889 47.4964 6.91553 47.6331C7.05216 47.7697 7.12892 47.955 7.12892 48.1482C7.12892 48.3415 7.05216 48.5268 6.91553 48.6634C6.77889 48.8 6.59358 48.8768 6.40035 48.8768Z" fill="#5E58EA"/>
<path d="M14.3894 45.9685C14.1962 45.9685 14.0109 45.8918 13.8742 45.7552C13.7376 45.6185 13.6609 45.4332 13.6609 45.24V39.0472C13.6609 38.8539 13.7376 38.6686 13.8742 38.532C14.0109 38.3954 14.1962 38.3186 14.3894 38.3186C14.5827 38.3186 14.768 38.3954 14.9046 38.532C15.0412 38.6686 15.118 38.8539 15.118 39.0472V45.24C15.118 45.4332 15.0412 45.6185 14.9046 45.7552C14.768 45.8918 14.5827 45.9685 14.3894 45.9685Z" fill="#5E58EA"/>
<path d="M16.7689 44.8521C16.5986 44.8523 16.4337 44.7926 16.303 44.6835L11.5436 40.7205C11.3951 40.5969 11.3018 40.4193 11.2842 40.2268C11.2667 40.0343 11.3263 39.8428 11.4499 39.6943C11.5736 39.5458 11.7512 39.4525 11.9437 39.4349C12.1361 39.4173 12.3277 39.4769 12.4762 39.6006L17.2356 43.5636C17.3507 43.6594 17.4335 43.7884 17.4727 43.933C17.5119 44.0776 17.5055 44.2308 17.4545 44.3717C17.4035 44.5125 17.3103 44.6342 17.1876 44.7202C17.0649 44.8062 16.9187 44.8522 16.7689 44.8521Z" fill="#5E58EA"/>
<path d="M12.0104 44.8521C11.8606 44.8522 11.7144 44.8062 11.5917 44.7202C11.469 44.6342 11.3758 44.5125 11.3248 44.3717C11.2737 44.2308 11.2674 44.0776 11.3066 43.933C11.3457 43.7884 11.4285 43.6594 11.5437 43.5636L16.3031 39.6006C16.4516 39.4769 16.6431 39.4173 16.8356 39.4349C17.0281 39.4525 17.2057 39.5458 17.3293 39.6943C17.453 39.8428 17.5126 40.0343 17.495 40.2268C17.4775 40.4193 17.3842 40.5969 17.2357 40.7205L12.4762 44.6835C12.3455 44.7926 12.1806 44.8523 12.0104 44.8521Z" fill="#5E58EA"/>
<path d="M16.7692 48.8768H12.0098C11.8166 48.8768 11.6312 48.8 11.4946 48.6634C11.358 48.5268 11.2812 48.3415 11.2812 48.1482C11.2812 47.955 11.358 47.7697 11.4946 47.6331C11.6312 47.4964 11.8166 47.4197 12.0098 47.4197H16.7692C16.9624 47.4197 17.1477 47.4964 17.2844 47.6331C17.421 47.7697 17.4978 47.955 17.4978 48.1482C17.4978 48.3415 17.421 48.5268 17.2844 48.6634C17.1477 48.8 16.9624 48.8768 16.7692 48.8768Z" fill="#5E58EA"/>
<path d="M24.7574 45.9685C24.5642 45.9685 24.3789 45.8918 24.2423 45.7552C24.1056 45.6185 24.0289 45.4332 24.0289 45.24V39.0472C24.0289 38.8539 24.1056 38.6686 24.2423 38.532C24.3789 38.3954 24.5642 38.3186 24.7574 38.3186C24.9507 38.3186 25.136 38.3954 25.2726 38.532C25.4092 38.6686 25.486 38.8539 25.486 39.0472V45.24C25.486 45.4332 25.4092 45.6185 25.2726 45.7552C25.136 45.8918 24.9507 45.9685 24.7574 45.9685Z" fill="#5E58EA"/>
<path d="M27.1369 44.8521C26.9666 44.8523 26.8018 44.7926 26.671 44.6835L21.9116 40.7205C21.8381 40.6593 21.7773 40.5842 21.7328 40.4995C21.6883 40.4147 21.6609 40.3221 21.6522 40.2268C21.6435 40.1315 21.6537 40.0354 21.6821 39.9441C21.7106 39.8527 21.7567 39.7678 21.818 39.6943C21.8792 39.6207 21.9543 39.56 22.039 39.5155C22.1237 39.471 22.2164 39.4436 22.3117 39.4349C22.407 39.4262 22.503 39.4364 22.5944 39.4648C22.6858 39.4932 22.7707 39.5394 22.8442 39.6006L27.6036 43.5636C27.7187 43.6594 27.8015 43.7884 27.8407 43.933C27.8799 44.0776 27.8735 44.2308 27.8225 44.3717C27.7715 44.5125 27.6783 44.6342 27.5556 44.7202C27.4329 44.8062 27.2867 44.8522 27.1369 44.8521Z" fill="#5E58EA"/>
<path d="M22.3784 44.8521C22.2286 44.8522 22.0824 44.8062 21.9597 44.7202C21.837 44.6342 21.7438 44.5125 21.6928 44.3717C21.6418 44.2308 21.6354 44.0776 21.6746 43.933C21.7138 43.7884 21.7965 43.6594 21.9117 43.5636L26.6711 39.6006C26.7446 39.5394 26.8295 39.4932 26.9209 39.4648C27.0122 39.4364 27.1083 39.4262 27.2036 39.4349C27.2989 39.4436 27.3916 39.471 27.4763 39.5155C27.561 39.56 27.6361 39.6207 27.6973 39.6943C27.7586 39.7678 27.8047 39.8527 27.8332 39.9441C27.8616 40.0354 27.8717 40.1315 27.863 40.2268C27.8543 40.3221 27.827 40.4147 27.7825 40.4995C27.7379 40.5842 27.6772 40.6593 27.6037 40.7205L22.8443 44.6835C22.7135 44.7926 22.5486 44.8523 22.3784 44.8521Z" fill="#5E58EA"/>
<path d="M27.1372 48.8768H22.3778C22.1846 48.8768 21.9993 48.8 21.8626 48.6634C21.726 48.5268 21.6492 48.3415 21.6492 48.1482C21.6492 47.955 21.726 47.7697 21.8626 47.6331C21.9993 47.4964 22.1846 47.4197 22.3778 47.4197H27.1372C27.3304 47.4197 27.5157 47.4964 27.6524 47.6331C27.789 47.7697 27.8658 47.955 27.8658 48.1482C27.8658 48.3415 27.789 48.5268 27.6524 48.6634C27.5157 48.8 27.3304 48.8768 27.1372 48.8768Z" fill="#5E58EA"/>
<path d="M35.1254 45.9685C34.9323 45.9684 34.747 45.8916 34.6104 45.755C34.4738 45.6184 34.397 45.4332 34.3969 45.24V39.0472C34.3969 38.8539 34.4736 38.6686 34.6103 38.532C34.7469 38.3954 34.9322 38.3186 35.1254 38.3186C35.3187 38.3186 35.504 38.3954 35.6406 38.532C35.7773 38.6686 35.854 38.8539 35.854 39.0472V45.24C35.854 45.4332 35.7773 45.6185 35.6406 45.7552C35.504 45.8918 35.3187 45.9685 35.1254 45.9685Z" fill="#5E58EA"/>
<path d="M37.5047 44.8521C37.3344 44.8522 37.1695 44.7925 37.0388 44.6835L32.2802 40.7205C32.2067 40.6593 32.1459 40.5842 32.1014 40.4995C32.0569 40.4147 32.0295 40.3221 32.0208 40.2268C32.0121 40.1315 32.0223 40.0354 32.0507 39.9441C32.0792 39.8527 32.1253 39.7678 32.1865 39.6943C32.2478 39.6207 32.3229 39.56 32.4076 39.5155C32.4923 39.471 32.585 39.4436 32.6803 39.4349C32.7756 39.4262 32.8716 39.4364 32.963 39.4648C33.0544 39.4932 33.1392 39.5394 33.2128 39.6006L37.9714 43.5636C38.0865 43.6594 38.1693 43.7884 38.2085 43.933C38.2476 44.0776 38.2413 44.2308 38.1903 44.3717C38.1392 44.5125 38.046 44.6342 37.9234 44.7202C37.8007 44.8062 37.6545 44.8522 37.5047 44.8521Z" fill="#5E58EA"/>
<path d="M32.747 44.8521C32.5972 44.8522 32.451 44.8062 32.3283 44.7202C32.2056 44.6342 32.1124 44.5125 32.0614 44.3717C32.0104 44.2308 32.004 44.0776 32.0432 43.933C32.0823 43.7884 32.1651 43.6594 32.2803 43.5636L37.0389 39.6006C37.1124 39.5394 37.1973 39.4932 37.2886 39.4648C37.38 39.4364 37.4761 39.4262 37.5714 39.4349C37.6667 39.4436 37.7593 39.471 37.844 39.5155C37.9287 39.56 38.0039 39.6207 38.0651 39.6943C38.1263 39.7678 38.1725 39.8527 38.2009 39.9441C38.2293 40.0354 38.2395 40.1315 38.2308 40.2268C38.2221 40.3221 38.1947 40.4147 38.1502 40.4995C38.1057 40.5842 38.045 40.6593 37.9714 40.7205L33.2128 44.6835C33.0821 44.7925 32.9172 44.8522 32.747 44.8521Z" fill="#5E58EA"/>
<path d="M37.505 48.8768H32.7464C32.5532 48.8768 32.3678 48.8 32.2312 48.6634C32.0946 48.5268 32.0178 48.3415 32.0178 48.1482C32.0178 47.955 32.0946 47.7697 32.2312 47.6331C32.3678 47.4964 32.5532 47.4197 32.7464 47.4197H37.505C37.6982 47.4197 37.8835 47.4964 38.0201 47.6331C38.1568 47.7697 38.2335 47.955 38.2335 48.1482C38.2335 48.3415 38.1568 48.5268 38.0201 48.6634C37.8835 48.8 37.6982 48.8768 37.505 48.8768Z" fill="#5E58EA"/>
</g>
<defs>
<clipPath id="clip0_38_1748">
<rect width="38" height="48.6898" fill="white" transform="translate(0.789215 0.337769)"/>
</clipPath>
</defs>
</svg>
