<svg width="21" height="21" viewBox="0 0 21 21" fill="none" xmlns="http://www.w3.org/2000/svg">
<path d="M16.5688 7.20451C16.735 7.46805 16.7521 7.79175 16.6347 8.06675C16.523 8.33029 16.3167 8.49071 16.0589 8.52508C16.0016 8.53368 15.9472 8.53654 15.8928 8.53654C15.5576 8.53654 15.2568 8.39045 15.042 8.15842C14.7813 7.87196 14.4118 7.70868 14.0222 7.70868C13.6326 7.70868 13.2631 7.87482 13.0053 8.16128C12.7961 8.39331 12.4982 8.53941 12.1573 8.53941C11.8193 8.53941 11.5185 8.39331 11.3094 8.16128C11.0488 7.87196 10.6792 7.70868 10.2896 7.70868C9.90005 7.70868 9.53052 7.87196 9.26985 8.16128C9.06073 8.39331 8.76281 8.53941 8.42193 8.53941C8.08391 8.53941 7.78313 8.39331 7.57401 8.16128C7.31333 7.87196 6.9438 7.70868 6.55422 7.70868C6.16464 7.70868 5.7951 7.87196 5.53443 8.16128C5.32531 8.39045 5.0274 8.53654 4.68937 8.53654C4.63781 8.53654 4.58052 8.53368 4.52323 8.52508C4.26828 8.49071 4.06489 8.33029 3.95318 8.06675C3.83573 7.79175 3.85292 7.46805 4.01906 7.20451L5.49146 4.86987H15.0935L16.5688 7.20451ZM15.8928 9.91154C16.0102 9.91154 16.1248 9.90295 16.2365 9.88863C17.8264 9.67665 18.5797 7.8118 17.729 6.46831L16.0876 3.87013C15.9415 3.6381 15.6808 3.49487 15.4029 3.49487H5.18208C4.90422 3.49487 4.64354 3.6381 4.49745 3.87013L2.85318 6.46831C2.00526 7.80894 2.75578 9.67378 4.33989 9.88863C4.45448 9.90295 4.57193 9.91154 4.68651 9.91154C5.24797 9.91154 5.76073 9.72821 6.17323 9.42456C6.31073 9.3243 6.43677 9.20685 6.55135 9.08368C6.66594 9.20972 6.79198 9.3243 6.92948 9.42456C7.34484 9.72821 7.85761 9.91154 8.41906 9.91154C8.98052 9.91154 9.49328 9.72821 9.90865 9.42456C10.0461 9.3243 10.1722 9.20685 10.2868 9.08081C10.4014 9.20685 10.5274 9.32144 10.6649 9.4217C11.0803 9.72534 11.593 9.90868 12.1545 9.90868C12.7217 9.90868 13.2373 9.72248 13.6527 9.4131C13.7873 9.31284 13.9105 9.20112 14.0222 9.07795C14.1339 9.20112 14.26 9.31571 14.3946 9.41597C14.81 9.72248 15.3256 9.90868 15.8899 9.90868L15.8928 9.91154ZM5.25083 13.1199V10.7824C5.0675 10.8139 4.8813 10.8282 4.68937 10.8282C4.53182 10.8282 4.37427 10.8168 4.22245 10.7967H4.21958C4.10213 10.7795 3.98755 10.7595 3.87583 10.7308V13.1199V14.4949V16.3282C3.87583 17.3394 4.69797 18.1615 5.70917 18.1615H14.8758C15.887 18.1615 16.7092 17.3394 16.7092 16.3282V14.4949V13.1199V10.7308C16.5946 10.7595 16.48 10.7824 16.3568 10.7967H16.354C16.2021 10.8168 16.0475 10.8282 15.8899 10.8282C15.7008 10.8282 15.5146 10.8139 15.3342 10.7824V13.1199H5.25083ZM15.3342 14.4949V16.3282C15.3342 16.5803 15.1279 16.7865 14.8758 16.7865H5.70917C5.45708 16.7865 5.25083 16.5803 5.25083 16.3282V14.4949H15.3342Z" fill="#D2D4DA"/>
</svg>
