<svg width="39" height="36" viewBox="0 0 39 36" fill="none" xmlns="http://www.w3.org/2000/svg">
<g clip-path="url(#clip0_38_1869)">
<path d="M37.9267 33.5367C37.7991 33.5368 37.6745 33.4982 37.5692 33.426L23.4285 23.7515C23.2946 23.6545 23.2039 23.5091 23.1756 23.3462C23.1473 23.1833 23.1837 23.0159 23.2771 22.8794C23.3704 22.743 23.5133 22.6484 23.6754 22.6158C23.8375 22.5831 24.0059 22.615 24.1447 22.7047L38.2855 32.3793C38.3971 32.4559 38.4813 32.5662 38.5258 32.6941C38.5702 32.8221 38.5725 32.9608 38.5325 33.0902C38.4924 33.2195 38.4119 33.3326 38.303 33.413C38.194 33.4933 38.0621 33.5367 37.9267 33.5367Z" fill="#2E3F73"/>
<path d="M1.76586 33.539C1.63028 33.5391 1.49822 33.4958 1.38904 33.4154C1.27985 33.335 1.1993 33.2218 1.15918 33.0923C1.11906 32.9628 1.12149 32.8238 1.16611 32.6958C1.21072 32.5677 1.29519 32.4574 1.40711 32.3809L15.5478 22.7063C15.6165 22.6566 15.6944 22.6211 15.7769 22.602C15.8595 22.5829 15.945 22.5805 16.0285 22.595C16.112 22.6095 16.1917 22.6406 16.263 22.6865C16.3343 22.7323 16.3957 22.7919 16.4435 22.8618C16.4914 22.9318 16.5247 23.0106 16.5416 23.0936C16.5585 23.1767 16.5586 23.2622 16.5419 23.3453C16.5251 23.4284 16.4919 23.5073 16.4442 23.5773C16.3965 23.6473 16.3353 23.7071 16.2641 23.753L2.12335 33.4276C2.01819 33.5 1.89354 33.5388 1.76586 33.539Z" fill="#2E3F73"/>
<path d="M8.10963 18.5298C7.98183 18.5298 7.85701 18.4912 7.75151 18.4191L1.40753 14.0798C1.32248 14.0215 1.25291 13.9434 1.20484 13.8522C1.15677 13.761 1.13165 13.6595 1.13165 13.5564C1.13165 13.4533 1.15677 13.3518 1.20484 13.2606C1.25291 13.1694 1.32248 13.0913 1.40753 13.033L7.75151 8.69375C7.84677 8.6286 7.95801 8.59067 8.07323 8.58405C8.18845 8.57743 8.3033 8.60237 8.4054 8.65617C8.5075 8.70998 8.59299 8.79062 8.65266 8.88941C8.71233 8.9882 8.74392 9.1014 8.74402 9.21681V17.8954C8.74402 18.0636 8.67719 18.225 8.55821 18.344C8.43924 18.4629 8.27788 18.5298 8.10963 18.5298ZM2.88917 13.5561L7.47523 16.6929V10.4193L2.88917 13.5561Z" fill="#2E3F73"/>
<path d="M26.7992 6.57642H12.8932C12.7577 6.57633 12.6259 6.5329 12.5169 6.45248C12.4079 6.37206 12.3275 6.25888 12.2875 6.12948C12.2475 6.00009 12.2499 5.86129 12.2944 5.73338C12.339 5.60548 12.4233 5.49518 12.535 5.41864L19.488 0.660658C19.5936 0.588445 19.7184 0.549805 19.8463 0.549805C19.9742 0.549805 20.0991 0.588445 20.2046 0.660658L27.1576 5.41864C27.2693 5.4952 27.3537 5.60552 27.3982 5.73346C27.4427 5.86139 27.4452 6.00023 27.4051 6.12964C27.365 6.25904 27.2846 6.37223 27.1756 6.45262C27.0665 6.53302 26.9346 6.5764 26.7992 6.57642ZM14.9435 5.30762H24.7488L19.8462 1.95261L14.9435 5.30762Z" fill="#2E3F73"/>
<path d="M31.5825 18.5304C31.4143 18.5304 31.2529 18.4636 31.134 18.3446C31.015 18.2256 30.9482 18.0643 30.9482 17.896V9.21745C30.9481 9.10198 30.9796 8.9887 31.0393 8.88982C31.0989 8.79094 31.1844 8.71021 31.2865 8.65632C31.3886 8.60244 31.5035 8.57745 31.6188 8.58404C31.7341 8.59064 31.8454 8.62857 31.9407 8.69375L38.2846 13.033C38.3697 13.0913 38.4393 13.1694 38.4873 13.2606C38.5354 13.3518 38.5605 13.4533 38.5605 13.5564C38.5605 13.6595 38.5354 13.761 38.4873 13.8522C38.4393 13.9434 38.3697 14.0215 38.2846 14.0798L31.9407 18.4191C31.8352 18.4914 31.7104 18.5302 31.5825 18.5304ZM32.2169 10.4199V16.6935L36.8027 13.5567L32.2169 10.4199Z" fill="#2E3F73"/>
<path d="M19.8461 26.5614C19.7183 26.5613 19.5934 26.5226 19.488 26.4504L7.75162 18.4192C7.66646 18.361 7.59678 18.2828 7.54864 18.1916C7.50049 18.1003 7.47533 17.9987 7.47534 17.8955V7.21228C7.47585 6.70767 7.67652 6.22388 8.03333 5.86707C8.39014 5.51026 8.87393 5.30959 9.37854 5.30908H30.3137C30.8183 5.30959 31.3021 5.51026 31.6589 5.86707C32.0157 6.22388 32.2164 6.70767 32.2169 7.21228V17.8955C32.2169 17.9987 32.1918 18.1003 32.1437 18.1915C32.0956 18.2828 32.026 18.3609 31.9409 18.4192L20.2045 26.4504C20.099 26.5227 19.974 26.5614 19.8461 26.5614ZM8.74414 17.5609L19.8461 25.1584L30.9481 17.5609V7.21228C30.9481 7.04402 30.8812 6.88266 30.7622 6.76369C30.6433 6.64472 30.4819 6.57788 30.3137 6.57788H9.37854C9.21028 6.57788 9.04892 6.64472 8.92995 6.76369C8.81098 6.88266 8.74414 7.04402 8.74414 7.21228V17.5609Z" fill="#5E58EA"/>
<path d="M14.1365 9.43359H10.9645C10.7963 9.43359 10.6349 9.36675 10.5159 9.24778C10.397 9.12881 10.3301 8.96745 10.3301 8.79919C10.3301 8.63094 10.397 8.46958 10.5159 8.35061C10.6349 8.23163 10.7963 8.16479 10.9645 8.16479H14.1365C14.3048 8.16479 14.4661 8.23163 14.5851 8.35061C14.7041 8.46958 14.7709 8.63094 14.7709 8.79919C14.7709 8.96745 14.7041 9.12881 14.5851 9.24778C14.4661 9.36675 14.3048 9.43359 14.1365 9.43359Z" fill="#5E58EA"/>
<path d="M20.4805 12.2893H10.9645C10.7963 12.2893 10.6349 12.2225 10.5159 12.1035C10.397 11.9845 10.3301 11.8232 10.3301 11.6549C10.3301 11.4867 10.397 11.3253 10.5159 11.2063C10.6349 11.0873 10.7963 11.0205 10.9645 11.0205H20.4805C20.6488 11.0205 20.8101 11.0873 20.9291 11.2063C21.0481 11.3253 21.1149 11.4867 21.1149 11.6549C21.1149 11.8232 21.0481 11.9845 20.9291 12.1035C20.8101 12.2225 20.6488 12.2893 20.4805 12.2893Z" fill="#5E58EA"/>
<path d="M14.1365 15.1448H10.9645C10.7963 15.1448 10.6349 15.0779 10.5159 14.959C10.397 14.84 10.3301 14.6786 10.3301 14.5104C10.3301 14.3421 10.397 14.1808 10.5159 14.0618C10.6349 13.9428 10.7963 13.876 10.9645 13.876H14.1365C14.3048 13.876 14.4661 13.9428 14.5851 14.0618C14.7041 14.1808 14.7709 14.3421 14.7709 14.5104C14.7709 14.6786 14.7041 14.84 14.5851 14.959C14.4661 15.0779 14.3048 15.1448 14.1365 15.1448Z" fill="#5E58EA"/>
<path d="M36.6577 34.8086H3.0346C2.53 34.8081 2.04621 34.6075 1.6894 34.2507C1.33259 33.8938 1.13191 33.41 1.13141 32.9054V13.5563C1.1314 13.4408 1.16291 13.3276 1.22253 13.2287C1.28215 13.1298 1.36763 13.0491 1.46975 12.9952C1.57188 12.9413 1.68677 12.9163 1.80205 12.9229C1.91732 12.9295 2.02861 12.9674 2.12392 13.0326L19.8461 25.1585L37.5684 13.0326C37.6637 12.9674 37.775 12.9295 37.8902 12.9229C38.0055 12.9163 38.1204 12.9413 38.2225 12.9952C38.3247 13.0491 38.4101 13.1298 38.4698 13.2287C38.5294 13.3276 38.5609 13.4408 38.5609 13.5563V32.9054C38.5604 33.41 38.3597 33.8938 38.0029 34.2507C37.6461 34.6075 37.1623 34.8081 36.6577 34.8086ZM2.4002 14.7591V32.9054C2.4002 33.0737 2.46704 33.2351 2.58602 33.354C2.70499 33.473 2.86635 33.5398 3.0346 33.5398H36.6577C36.8259 33.5398 36.9873 33.473 37.1063 33.354C37.2252 33.2351 37.2921 33.0737 37.2921 32.9054V14.7591L20.2046 26.4504C20.0991 26.5227 19.9742 26.5613 19.8463 26.5613C19.7184 26.5613 19.5935 26.5227 19.488 26.4504L2.4002 14.7591Z" fill="#2E3F73"/>
</g>
<defs>
<clipPath id="clip0_38_1869">
<rect width="38" height="34.8333" fill="white" transform="translate(0.789246 0.337646)"/>
</clipPath>
</defs>
</svg>
