<svg width="39" height="39" viewBox="0 0 39 39" fill="none" xmlns="http://www.w3.org/2000/svg">
<path d="M17.6951 27.1781C17.315 27.1791 16.9384 27.1047 16.5872 26.9591C16.236 26.8136 15.9171 26.5999 15.6491 26.3303L9.64961 20.3316C9.10688 19.7889 8.80195 19.0529 8.80191 18.2853C8.80189 17.9053 8.87673 17.529 9.02214 17.1779C9.16756 16.8268 9.3807 16.5077 9.64941 16.239C9.91812 15.9703 10.2371 15.7571 10.5882 15.6116C10.9393 15.4662 11.3156 15.3913 11.6957 15.3913C12.4632 15.3913 13.1993 15.6961 13.742 16.2388L17.6951 20.1915L25.6917 12.1953C26.2352 11.6562 26.9701 11.3544 27.7355 11.356C28.501 11.3575 29.2346 11.6623 29.7759 12.2035C30.3171 12.7448 30.6219 13.4784 30.6234 14.2439C30.625 15.0093 30.3232 15.7442 29.7841 16.2877L19.7411 26.3307C19.473 26.6002 19.1542 26.8139 18.803 26.9594C18.4518 27.1048 18.0752 27.1792 17.6951 27.1781ZM11.6956 16.8048C11.4027 16.8047 11.1164 16.8915 10.8729 17.0542C10.6293 17.2169 10.4395 17.4482 10.3274 17.7188C10.2154 17.9893 10.1861 18.2871 10.2433 18.5743C10.3005 18.8616 10.4416 19.1254 10.6488 19.3324L16.6487 25.3315C16.9308 25.6007 17.3058 25.7509 17.6957 25.7509C18.0856 25.7509 18.4606 25.6007 18.7427 25.3315L28.785 15.2889C29.0623 15.0108 29.218 14.6342 29.218 14.2415C29.218 13.8488 29.0623 13.4721 28.785 13.194C28.5028 12.9251 28.128 12.775 27.7381 12.775C27.3483 12.775 26.9735 12.9251 26.6913 13.194L18.1945 21.6905C18.1289 21.7561 18.051 21.8082 17.9653 21.8438C17.8796 21.8793 17.7877 21.8976 17.6949 21.8976C17.6021 21.8976 17.5102 21.8793 17.4245 21.8438C17.3388 21.8082 17.2609 21.7561 17.1953 21.6905L12.7428 17.238C12.6055 17.1002 12.4423 16.991 12.2626 16.9166C12.0828 16.8422 11.8901 16.8043 11.6956 16.8048Z" fill="#5E58EA"/>
<path d="M19.717 38.1363C15.9842 38.1363 12.3352 37.0294 9.23151 34.9556C6.1278 32.8818 3.70876 29.9342 2.28028 26.4855C0.851805 23.0369 0.478051 19.2421 1.20628 15.581C1.93451 11.9199 3.73202 8.55701 6.37151 5.91753C9.01099 3.27805 12.3739 1.48053 16.035 0.752303C19.696 0.0240711 23.4908 0.397826 26.9395 1.8263C30.3881 3.25478 33.3357 5.67382 35.4096 8.77753C37.4834 11.8812 38.5903 15.5302 38.5903 19.263C38.585 24.2669 36.5948 29.0643 33.0565 32.6026C29.5183 36.1408 24.7208 38.131 19.717 38.1363ZM19.717 1.80263C16.2636 1.80263 12.8879 2.82667 10.0165 4.74523C7.14517 6.6638 4.90724 9.39074 3.5857 12.5812C2.26417 15.7717 1.9184 19.2824 2.59211 22.6693C3.26582 26.0563 4.92876 29.1675 7.37063 31.6093C9.81251 34.0512 12.9236 35.7141 16.3106 36.3878C19.6976 37.0616 23.2083 36.7158 26.3988 35.3943C29.5892 34.0727 32.3162 31.8348 34.2347 28.9634C36.1533 26.0921 37.1773 22.7163 37.1773 19.263C37.172 14.6339 35.3307 10.1958 32.0574 6.92255C28.7841 3.64926 24.3461 1.80798 19.717 1.80263Z" fill="#2E3F73"/>
</svg>
