<svg width="21" height="21" viewBox="0 0 21 21" fill="none" xmlns="http://www.w3.org/2000/svg">
<path d="M13.2815 6.22447C13.2815 5.5169 12.9826 4.8383 12.4505 4.33797C11.9184 3.83764 11.1968 3.55656 10.4443 3.55656C9.69181 3.55656 8.97014 3.83764 8.43806 4.33797C7.90597 4.8383 7.60705 5.5169 7.60705 6.22447C7.60705 6.93205 7.90597 7.61064 8.43806 8.11097C8.97014 8.6113 9.69181 8.89239 10.4443 8.89239C11.1968 8.89239 11.9184 8.6113 12.4505 8.11097C12.9826 7.61064 13.2815 6.93205 13.2815 6.22447ZM5.9047 6.22447C5.9047 5.09235 6.38297 4.0066 7.23431 3.20607C8.08565 2.40554 9.24032 1.95581 10.4443 1.95581C11.6483 1.95581 12.8029 2.40554 13.6543 3.20607C14.5056 4.0066 14.9839 5.09235 14.9839 6.22447C14.9839 7.35659 14.5056 8.44234 13.6543 9.24287C12.8029 10.0434 11.6483 10.4931 10.4443 10.4931C9.24032 10.4931 8.08565 10.0434 7.23431 9.24287C6.38297 8.44234 5.9047 7.35659 5.9047 6.22447ZM4.24845 17.4297H16.6401C16.3245 15.3187 14.3952 13.6946 12.0651 13.6946H8.82352C6.49343 13.6946 4.5641 15.3187 4.24845 17.4297ZM2.5 18.04C2.5 14.7551 5.33015 12.0939 8.82352 12.0939H12.0651C15.5584 12.0939 18.3886 14.7551 18.3886 18.04C18.3886 18.5869 17.9169 19.0305 17.3353 19.0305H3.55333C2.97169 19.0305 2.5 18.5869 2.5 18.04Z" fill="#D2D4DA"/>
</svg>
