<svg width="18" height="21" viewBox="0 0 18 21" fill="none" xmlns="http://www.w3.org/2000/svg">
<g clip-path="url(#clip0_1_4832)">
<path d="M5.5 6.27612V4.71362C5.5 4.45581 5.71094 4.24487 5.96875 4.24487H7.53125C7.78906 4.24487 8 4.45581 8 4.71362V6.27612C8 6.53394 7.78906 6.74487 7.53125 6.74487H5.96875C5.71094 6.74487 5.5 6.53394 5.5 6.27612ZM10.9688 6.74487H12.5312C12.7891 6.74487 13 6.53394 13 6.27612V4.71362C13 4.45581 12.7891 4.24487 12.5312 4.24487H10.9688C10.7109 4.24487 10.5 4.45581 10.5 4.71362V6.27612C10.5 6.53394 10.7109 6.74487 10.9688 6.74487ZM5.96875 10.4949H7.53125C7.78906 10.4949 8 10.2839 8 10.0261V8.46362C8 8.20581 7.78906 7.99487 7.53125 7.99487H5.96875C5.71094 7.99487 5.5 8.20581 5.5 8.46362V10.0261C5.5 10.2839 5.71094 10.4949 5.96875 10.4949ZM10.9688 10.4949H12.5312C12.7891 10.4949 13 10.2839 13 10.0261V8.46362C13 8.20581 12.7891 7.99487 12.5312 7.99487H10.9688C10.7109 7.99487 10.5 8.20581 10.5 8.46362V10.0261C10.5 10.2839 10.7109 10.4949 10.9688 10.4949ZM8 13.7761V12.2136C8 11.9558 7.78906 11.7449 7.53125 11.7449H5.96875C5.71094 11.7449 5.5 11.9558 5.5 12.2136V13.7761C5.5 14.0339 5.71094 14.2449 5.96875 14.2449H7.53125C7.78906 14.2449 8 14.0339 8 13.7761ZM10.9688 14.2449H12.5312C12.7891 14.2449 13 14.0339 13 13.7761V12.2136C13 11.9558 12.7891 11.7449 12.5312 11.7449H10.9688C10.7109 11.7449 10.5 11.9558 10.5 12.2136V13.7761C10.5 14.0339 10.7109 14.2449 10.9688 14.2449ZM18 19.0886V20.4949H0.5V19.0886C0.5 18.8308 0.710938 18.6199 0.96875 18.6199H1.73047V1.43237C1.73047 0.912842 2.14844 0.494873 2.66797 0.494873H15.832C16.3516 0.494873 16.7695 0.912842 16.7695 1.43237V18.6199H17.5312C17.7891 18.6199 18 18.8308 18 19.0886ZM3.60547 18.5808H8V15.9636C8 15.7058 8.21094 15.4949 8.46875 15.4949H10.0312C10.2891 15.4949 10.5 15.7058 10.5 15.9636V18.5808H14.8945V2.40894L3.625 2.36987L3.60547 18.5808Z" fill="#D2D4DA"/>
</g>
<defs>
<clipPath id="clip0_1_4832">
<rect width="17.5" height="20" fill="white" transform="translate(0.5 0.494873)"/>
</clipPath>
</defs>
</svg>
