<svg width="76" height="76" viewBox="0 0 76 76" fill="none" xmlns="http://www.w3.org/2000/svg">
<path d="M45.6003 11.5985H12.873C12.5008 11.5983 12.1439 11.4503 11.8807 11.1871C11.6175 10.9239 11.4695 10.567 11.4693 10.1947V1.79473C11.4693 1.42244 11.6172 1.06539 11.8804 0.802139C12.1437 0.538886 12.5007 0.390991 12.873 0.390991H45.6003C45.7847 0.390886 45.9673 0.427122 46.1376 0.49763C46.308 0.568137 46.4628 0.671533 46.5931 0.801903C46.7235 0.932274 46.8269 1.08706 46.8974 1.25742C46.9679 1.42778 47.0042 1.61036 47.0041 1.79473V10.1947C47.0041 10.567 46.8562 10.9241 46.5929 11.1873C46.3297 11.4506 45.9726 11.5985 45.6003 11.5985ZM14.2776 8.79099H44.1974V3.19848H14.2776V8.79099Z" fill="#2E3F73"/>
<path d="M24.4395 28.8869H15.2494C14.8771 28.8869 14.52 28.739 14.2568 28.4757C13.9935 28.2125 13.8456 27.8554 13.8456 27.4831V18.2971C13.8456 17.9248 13.9935 17.5677 14.2568 17.3045C14.52 17.0412 14.8771 16.8933 15.2494 16.8933H24.4395C24.8118 16.8933 25.1688 17.0412 25.4321 17.3045C25.6953 17.5677 25.8432 17.9248 25.8432 18.2971V27.4831C25.8432 27.8554 25.6953 28.2125 25.4321 28.4757C25.1688 28.739 24.8118 28.8869 24.4395 28.8869ZM16.6587 26.0794H23.0382V19.7008H16.6531L16.6587 26.0794Z" fill="#2E3F73"/>
<path d="M43.2244 28.8869H34.0383C33.8539 28.887 33.6713 28.8508 33.5009 28.7803C33.3306 28.7097 33.1758 28.6064 33.0454 28.476C32.9151 28.3456 32.8117 28.1908 32.7412 28.0205C32.6707 27.8501 32.6344 27.6675 32.6345 27.4831V18.2971C32.6344 18.1127 32.6707 17.9301 32.7412 17.7597C32.8117 17.5894 32.9151 17.4346 33.0454 17.3042C33.1758 17.1739 33.3306 17.0705 33.5009 17C33.6713 16.9294 33.8539 16.8932 34.0383 16.8933H43.2244C43.4087 16.8932 43.5913 16.9294 43.7617 17C43.932 17.0705 44.0868 17.1739 44.2172 17.3042C44.3476 17.4346 44.451 17.5894 44.5215 17.7597C44.592 17.9301 44.6282 18.1127 44.6281 18.2971V27.4831C44.6282 27.6675 44.592 27.8501 44.5215 28.0205C44.451 28.1908 44.3476 28.3456 44.2172 28.476C44.0868 28.6064 43.932 28.7097 43.7617 28.7803C43.5913 28.8508 43.4087 28.887 43.2244 28.8869ZM35.4436 26.0794H41.8222V19.7008H35.442L35.4436 26.0794Z" fill="#2E3F73"/>
<path d="M24.4395 46.9023H15.2494C14.8771 46.9023 14.52 46.7544 14.2568 46.4911C13.9935 46.2279 13.8456 45.8708 13.8456 45.4985V36.3124C13.8456 35.9401 13.9935 35.5831 14.2568 35.3198C14.52 35.0566 14.8771 34.9087 15.2494 34.9087H24.4395C24.8118 34.9087 25.1688 35.0566 25.4321 35.3198C25.6953 35.5831 25.8432 35.9401 25.8432 36.3124V45.4985C25.8432 45.8708 25.6953 46.2279 25.4321 46.4911C25.1688 46.7544 24.8118 46.9023 24.4395 46.9023ZM16.6587 44.0948H23.0382V37.7162H16.6531L16.6587 44.0948Z" fill="#2E3F73"/>
<path d="M43.2244 46.9023H34.0383C33.8539 46.9024 33.6713 46.8661 33.5009 46.7956C33.3306 46.7251 33.1758 46.6217 33.0454 46.4914C32.9151 46.361 32.8117 46.2062 32.7412 46.0358C32.6707 45.8655 32.6344 45.6829 32.6345 45.4985V36.3124C32.6344 36.1281 32.6707 35.9455 32.7412 35.7751C32.8117 35.6048 32.9151 35.45 33.0454 35.3196C33.1758 35.1892 33.3306 35.0858 33.5009 35.0153C33.6713 34.9448 33.8539 34.9086 34.0383 34.9087H43.2244C43.4087 34.9086 43.5913 34.9448 43.7617 35.0153C43.932 35.0858 44.0868 35.1892 44.2172 35.3196C44.3476 35.45 44.451 35.6048 44.5215 35.7751C44.592 35.9455 44.6282 36.1281 44.6281 36.3124V45.4985C44.6282 45.6829 44.592 45.8655 44.5215 46.0358C44.451 46.2062 44.3476 46.361 44.2172 46.4914C44.0868 46.6217 43.932 46.7251 43.7617 46.7956C43.5913 46.8661 43.4087 46.9024 43.2244 46.9023ZM35.4436 44.0948H41.8222V37.7162H35.442L35.4436 44.0948Z" fill="#2E3F73"/>
<path d="M38.6313 75.3906H29.2375C29.0531 75.3907 28.8705 75.3544 28.7002 75.2839C28.5298 75.2134 28.375 75.11 28.2447 74.9797C28.1143 74.8493 28.0109 74.6945 27.9404 74.5241C27.8699 74.3538 27.8336 74.1712 27.8337 73.9868V54.5085C27.8336 54.3241 27.8699 54.1415 27.9404 53.9712C28.0109 53.8008 28.1143 53.646 28.2447 53.5156C28.375 53.3853 28.5298 53.2819 28.7002 53.2114C28.8705 53.1409 29.0531 53.1046 29.2375 53.1047H38.6313C38.8157 53.1046 38.9983 53.1409 39.1686 53.2114C39.339 53.2819 39.4938 53.3853 39.6242 53.5156C39.7545 53.646 39.8579 53.8008 39.9284 53.9712C39.9989 54.1415 40.0352 54.3241 40.0351 54.5085V73.9868C40.0352 74.1712 39.9989 74.3538 39.9284 74.5241C39.8579 74.6945 39.7545 74.8493 39.6242 74.9797C39.4938 75.11 39.339 75.2134 39.1686 75.2839C38.9983 75.3544 38.8157 75.3907 38.6313 75.3906ZM30.6412 72.5831H37.2276V55.9122H30.6412V72.5831Z" fill="#2E3F73"/>
<path d="M29.2375 75.3906H19.8436C19.6593 75.3907 19.4767 75.3544 19.3063 75.2839C19.136 75.2134 18.9812 75.11 18.8508 74.9797C18.7204 74.8493 18.617 74.6945 18.5465 74.5241C18.476 74.3538 18.4398 74.1712 18.4399 73.9868V54.5085C18.4398 54.3241 18.476 54.1415 18.5465 53.9712C18.617 53.8008 18.7204 53.646 18.8508 53.5156C18.9812 53.3853 19.136 53.2819 19.3063 53.2114C19.4767 53.1409 19.6593 53.1046 19.8436 53.1047H29.2375C29.4218 53.1046 29.6044 53.1409 29.7748 53.2114C29.9451 53.2819 30.0999 53.3853 30.2303 53.5156C30.3607 53.646 30.4641 53.8008 30.5346 53.9712C30.6051 54.1415 30.6413 54.3241 30.6412 54.5085V73.9868C30.6413 74.1712 30.6051 74.3538 30.5346 74.5241C30.4641 74.6945 30.3607 74.8493 30.2303 74.9797C30.0999 75.11 29.9451 75.2134 29.7748 75.2839C29.6044 75.3544 29.4218 75.3907 29.2375 75.3906ZM21.2474 72.5831H27.8337V55.9122H21.2474V72.5831Z" fill="#2E3F73"/>
<path d="M68.8825 75.3921H51.0437C50.6714 75.3921 50.3143 75.2442 50.0511 74.9809C49.7878 74.7177 49.64 74.3606 49.64 73.9883V19.2447C49.6398 19.0465 49.6817 18.8506 49.7628 18.6697C49.8439 18.4889 49.9624 18.3273 50.1105 18.1956C50.2586 18.0639 50.4329 17.965 50.6219 17.9056C50.811 17.8461 51.0105 17.8274 51.2073 17.8506L69.0453 19.9362C69.3871 19.9763 69.7023 20.1405 69.9311 20.3976C70.1598 20.6548 70.2862 20.9869 70.2862 21.3311V73.9883C70.2862 74.3606 70.1383 74.7177 69.8751 74.9809C69.6118 75.2442 69.2548 75.3921 68.8825 75.3921ZM52.4474 72.5846H67.4787V22.5776L52.4474 20.8225V72.5846Z" fill="#5E58EA"/>
<path d="M68.8824 37.7142H57.8129C57.6285 37.7143 57.4459 37.6781 57.2756 37.6076C57.1052 37.5371 56.9504 37.4337 56.82 37.3033C56.6897 37.173 56.5863 37.0182 56.5158 36.8478C56.4452 36.6775 56.409 36.4949 56.4091 36.3105V29.153C56.4091 28.7807 56.557 28.4237 56.8203 28.1604C57.0835 27.8972 57.4406 27.7493 57.8129 27.7493H68.8824C69.2546 27.7495 69.6115 27.8974 69.8747 28.1606C70.138 28.4239 70.2859 28.7808 70.2861 29.153V36.3105C70.2861 36.6828 70.1382 37.0398 69.875 37.3031C69.6117 37.5663 69.2547 37.7142 68.8824 37.7142ZM59.219 34.9068H67.481V30.5568H59.219V34.9068Z" fill="#5E58EA"/>
<path d="M68.8824 52.2703H57.8129C57.6285 52.2704 57.4459 52.2342 57.2756 52.1637C57.1052 52.0932 56.9504 51.9898 56.82 51.8594C56.6897 51.729 56.5863 51.5743 56.5158 51.4039C56.4452 51.2335 56.409 51.051 56.4091 50.8666V43.7099C56.409 43.5255 56.4452 43.3429 56.5158 43.1726C56.5863 43.0022 56.6897 42.8474 56.82 42.7171C56.9504 42.5867 57.1052 42.4833 57.2756 42.4128C57.4459 42.3423 57.6285 42.306 57.8129 42.3062H68.8824C69.2547 42.3062 69.6117 42.454 69.875 42.7173C70.1382 42.9806 70.2861 43.3376 70.2861 43.7099V50.8666C70.2861 51.2389 70.1382 51.5959 69.875 51.8592C69.6117 52.1224 69.2547 52.2703 68.8824 52.2703ZM59.219 49.4628H67.481V45.1112H59.219V49.4628Z" fill="#5E58EA"/>
<path d="M68.8824 66.8225H57.8129C57.6285 66.8226 57.4459 66.7864 57.2756 66.7158C57.1052 66.6453 56.9504 66.5419 56.82 66.4116C56.6897 66.2812 56.5863 66.1264 56.5158 65.9561C56.4452 65.7857 56.409 65.6031 56.4091 65.4187V58.2645C56.4091 57.8922 56.557 57.5351 56.8203 57.2719C57.0835 57.0086 57.4406 56.8607 57.8129 56.8607H68.8824C69.2546 56.8609 69.6115 57.0089 69.8747 57.2721C70.138 57.5353 70.2859 57.8922 70.2861 58.2645V65.4219C70.2853 65.7937 70.137 66.1499 69.8738 66.4125C69.6107 66.675 69.2541 66.8225 68.8824 66.8225ZM59.219 64.015H67.481V59.665H59.219V64.015Z" fill="#5E58EA"/>
<path d="M74.2526 75.3901H2.06012C1.68782 75.3901 1.33077 75.2422 1.06752 74.979C0.804266 74.7157 0.656372 74.3587 0.656372 73.9864C0.656372 73.6141 0.804266 73.257 1.06752 72.9938C1.33077 72.7305 1.68782 72.5826 2.06012 72.5826H74.2526C74.6249 72.5826 74.982 72.7305 75.2452 72.9938C75.5085 73.257 75.6564 73.6141 75.6564 73.9864C75.6564 74.3587 75.5085 74.7157 75.2452 74.979C74.982 75.2422 74.6249 75.3901 74.2526 75.3901Z" fill="#2E3F73"/>
<path d="M51.0434 75.391H7.43426C7.06196 75.391 6.70492 75.2431 6.44166 74.9799C6.17841 74.7166 6.03052 74.3596 6.03052 73.9873V10.1948C6.03052 9.82246 6.17841 9.46542 6.44166 9.20216C6.70492 8.93891 7.06196 8.79102 7.43426 8.79102H51.0434C51.2277 8.79091 51.4103 8.82715 51.5807 8.89765C51.751 8.96816 51.9058 9.07156 52.0362 9.20193C52.1666 9.3323 52.27 9.48709 52.3405 9.65745C52.411 9.8278 52.4472 10.0104 52.4471 10.1948V73.9873C52.4472 74.1716 52.411 74.3542 52.3405 74.5246C52.27 74.6949 52.1666 74.8497 52.0362 74.9801C51.9058 75.1105 51.751 75.2139 51.5807 75.2844C51.4103 75.3549 51.2277 75.3911 51.0434 75.391ZM8.83399 72.5835H49.6396V11.5985H8.83399V72.5835Z" fill="#2E3F73"/>
</svg>
