<svg width="142" height="37" viewBox="0 0 142 37" fill="none" xmlns="http://www.w3.org/2000/svg">
<path fill-rule="evenodd" clip-rule="evenodd" d="M29.1974 8.02741C29.2339 7.51484 29.421 7.02449 29.7352 6.61792C30.0495 6.21134 30.4768 5.9067 30.9637 5.74224C31.4505 5.57778 31.9751 5.56085 32.4715 5.69355C32.968 5.82626 33.4141 6.10267 33.754 6.48811C34.0938 6.87356 34.3121 7.35082 34.3816 7.85997C34.4511 8.36912 34.3686 8.88746 34.1444 9.34986C33.9203 9.81226 33.5645 10.1981 33.1218 10.459C32.679 10.7198 32.1691 10.844 31.656 10.816C30.9615 10.7687 30.3137 10.4493 29.8533 9.9272C29.393 9.40506 29.1573 8.72234 29.1974 8.02741Z" fill="#03A87D"/>
<path d="M18.1277 36.726C17.9284 36.726 17.7291 36.726 17.5286 36.7169C14.7093 36.6255 11.9503 35.877 9.47141 34.531C6.9925 33.185 4.86212 31.2787 3.25003 28.964C1.63795 26.6492 0.588648 23.99 0.185745 21.1982C-0.217158 18.4064 0.0374817 15.559 0.929328 12.8829C1.82117 10.2069 3.32563 7.77604 5.32282 5.78407C7.32002 3.79211 9.75479 2.29405 12.4332 1.40922C15.1116 0.524383 17.9596 0.277254 20.7503 0.68747C23.5411 1.09769 26.1975 2.15391 28.508 3.77206C28.6662 3.88308 28.7738 4.05239 28.8072 4.24277C28.8405 4.43314 28.797 4.629 28.6859 4.78721C28.5749 4.94542 28.4056 5.05305 28.2152 5.08642C28.0248 5.11978 27.829 5.07613 27.6708 4.96511C24.4093 2.68329 20.4378 1.64639 16.4771 2.04254C12.5164 2.4387 8.8289 4.24167 6.08394 7.12426C3.33898 10.0069 1.71844 13.778 1.51638 17.7534C1.31431 21.7287 2.54414 25.6448 4.98266 28.7908C7.42119 31.9369 10.9068 34.1045 14.807 34.9002C18.7071 35.6959 22.7633 35.067 26.2393 33.1277C29.7154 31.1883 32.381 28.0671 33.7524 24.3303C35.1238 20.5935 35.1101 16.4889 33.7137 12.7614C33.6451 12.5804 33.6511 12.3795 33.7306 12.2029C33.8101 12.0264 33.9565 11.8886 34.1375 11.82C34.3185 11.7514 34.5194 11.7575 34.696 11.8369C34.8725 11.9164 35.0102 12.0627 35.0788 12.2438C36.1074 14.984 36.4568 17.9326 36.097 20.8373C35.7371 23.742 34.6788 26.5163 33.0127 28.9227C31.3465 31.3291 29.1221 33.2959 26.5298 34.6549C23.9375 36.0139 21.0546 36.7245 18.1277 36.726Z" fill="#1470B4"/>
<path fill-rule="evenodd" clip-rule="evenodd" d="M24.3313 19.6603L20.5282 28.5371C15.3756 28.4387 18.6921 22.1771 17.7746 18.9745C20.8711 17.568 23.0101 17.9691 24.3299 19.6603H24.3313Z" fill="#0A8C67"/>
<path fill-rule="evenodd" clip-rule="evenodd" d="M26.2032 15.2165L24.3256 19.6574C19.226 18.2133 8.94139 20.285 9.02939 15.276L23.0329 11.8444C26.3623 11.178 27.7935 11.3824 26.2032 15.2178V15.2165Z" fill="#03A87D"/>
<path d="M43.903 29.5778V8.03603H49.7802C51.8221 7.87813 53.864 8.34228 55.6371 9.36738C56.258 9.83575 56.7521 10.4519 57.0744 11.1598C57.3966 11.8677 57.5369 12.6449 57.4823 13.4208C57.4823 13.6339 57.4823 13.7918 57.4823 13.8983C57.4823 14.0049 57.4554 14.2153 57.4162 14.5282C57.3883 14.7976 57.3276 15.0626 57.2355 15.3174C57.1248 15.5885 56.9964 15.8521 56.851 16.1064C56.6853 16.4103 56.4727 16.6862 56.2211 16.9239C55.9265 17.1918 55.6041 17.4274 55.2594 17.6266C54.8351 17.876 54.3822 18.073 53.9105 18.2134C55.2534 18.3492 56.4925 18.997 57.3703 20.0223C58.1716 21.0064 58.5975 22.243 58.5722 23.5119C58.6172 24.3425 58.4784 25.1727 58.1657 25.9436C57.8531 26.7144 57.3742 27.4067 56.7634 27.9713C55.1672 29.1655 53.1903 29.7367 51.2032 29.5778H43.903ZM45.7564 17.6347H50.6934C51.354 17.6445 52.0139 17.5867 52.6627 17.4621C53.1964 17.3529 53.7048 17.1442 54.1613 16.847C54.6193 16.5398 54.9727 16.1003 55.1744 15.5871C55.4191 14.9377 55.5346 14.2467 55.5143 13.553C55.5802 12.9536 55.4856 12.3475 55.2403 11.7967C54.995 11.2459 54.6077 10.7702 54.1182 10.4182C52.7483 9.7372 51.2213 9.43449 49.6952 9.54139H45.7578L45.7564 17.6347ZM45.7564 28.1305H50.7217C54.6308 28.1305 56.5853 26.5909 56.5853 23.5119C56.6568 22.8393 56.5439 22.16 56.2588 21.5467C55.9736 20.9333 55.527 20.4092 54.9666 20.0304C53.3855 19.272 51.635 18.9356 49.8854 19.0538H45.7591L45.7564 28.1305Z" fill="#1470B4"/>
<path d="M67.622 29.9677C66.8428 29.9741 66.0661 29.8793 65.3113 29.6858C64.6091 29.5002 63.9417 29.2018 63.3352 28.8022C62.7076 28.3787 62.209 27.7901 61.8946 27.1013C61.5261 26.2882 61.3458 25.4025 61.3671 24.5101V13.7108H63.1625V24.5546C63.1442 25.209 63.2627 25.86 63.5105 26.4659C63.7133 26.9527 64.062 27.3647 64.5087 27.6449C64.937 27.9079 65.4068 28.0962 65.8981 28.202C66.4655 28.3156 67.0433 28.3689 67.622 28.3611C68.1956 28.3684 68.7683 28.3123 69.3296 28.1939C69.8181 28.085 70.2838 27.8915 70.7055 27.622C71.1425 27.3365 71.4829 26.9255 71.6821 26.443C71.924 25.8436 72.0397 25.2007 72.022 24.5546V13.7108H73.8174V24.5101C73.8292 25.2486 73.7119 25.9836 73.4708 26.6818C73.273 27.2615 72.9569 27.7939 72.5427 28.2451C72.1418 28.6619 71.6688 29.0028 71.1466 29.2514C70.6148 29.5129 70.0498 29.7003 69.4672 29.8085C68.8583 29.918 68.2406 29.9713 67.622 29.9677Z" fill="#1470B4"/>
<path d="M82.3545 29.9393C81.3814 29.9455 80.4121 29.8189 79.4733 29.563C78.7222 29.3749 78.0047 29.0719 77.3461 28.6646L77.6064 27.1593C79.0081 27.9389 80.5784 28.3662 82.1819 28.4043C84.7969 28.4043 86.153 27.4344 86.2501 25.4947C86.2682 25.1378 86.2068 24.7813 86.0704 24.451C85.9339 24.1207 85.7258 23.8248 85.461 23.5847C84.5037 22.9131 83.4317 22.4221 82.2979 22.136L80.922 21.6585C78.4409 20.9058 77.191 19.5691 77.1721 17.6482C77.1821 17.0786 77.3193 16.5185 77.5737 16.0088C77.828 15.4991 78.1932 15.0527 78.6424 14.7023C79.7635 13.7995 81.1789 13.3431 82.6162 13.4208C84.2367 13.411 85.8406 13.7467 87.3211 14.4055L86.7141 15.7382C85.3955 15.2115 83.9927 14.9268 82.5731 14.8978C81.633 14.8442 80.7024 15.1094 79.9319 15.6505C79.6211 15.8861 79.3713 16.1928 79.2035 16.5448C79.0356 16.8969 78.9547 17.2841 78.9675 17.6739C78.9479 17.9769 78.9941 18.2806 79.1028 18.5642C79.2115 18.8478 79.3802 19.1045 79.5974 19.3168C80.345 19.8499 81.1953 20.2219 82.0942 20.4094C82.2291 20.4472 82.4786 20.5349 82.8401 20.6698C83.2016 20.8046 83.4012 20.8775 83.4404 20.8869C84.7373 21.1965 85.938 21.8205 86.9367 22.7039C87.6295 23.4901 87.9856 24.5172 87.9281 25.5635C87.9448 26.1866 87.8123 26.8045 87.5418 27.366C87.2713 27.9275 86.8705 28.4162 86.3729 28.7914C85.1964 29.6062 83.7838 30.0097 82.3545 29.9393Z" fill="#1470B4"/>
<path d="M96.0215 29.9394C95.0484 29.9454 94.0791 29.8188 93.1402 29.563C92.3892 29.3747 91.6717 29.0717 91.013 28.6647L91.2734 27.1593C92.6746 27.9389 94.2444 28.3661 95.8475 28.4043C98.4634 28.4043 99.8195 27.4345 99.9157 25.4948C99.9337 25.1377 99.872 24.7811 99.7354 24.4508C99.5986 24.1205 99.3903 23.8247 99.1253 23.5847C98.1681 22.9129 97.0961 22.4219 95.9621 22.136L94.5862 21.6585C92.1061 20.9058 90.8561 19.5691 90.8363 17.6483C90.8463 17.0787 90.9835 16.5185 91.2379 16.0088C91.4923 15.4991 91.8574 15.0527 92.3066 14.7023C93.4278 13.7996 94.8431 13.3432 96.2805 13.4208C97.9009 13.4108 99.5049 13.7465 100.985 14.4055L100.378 15.7382C99.0598 15.2113 97.657 14.9266 96.2373 14.8979C95.2973 14.8443 94.3667 15.1095 93.5962 15.6505C93.2858 15.8864 93.0363 16.1932 92.8688 16.5452C92.7012 16.8972 92.6204 17.2842 92.633 17.6739C92.6133 17.977 92.6595 18.2807 92.7682 18.5643C92.8769 18.8479 93.0457 19.1046 93.263 19.3168C94.0107 19.8499 94.8609 20.222 95.7598 20.4094C95.8947 20.4472 96.1429 20.5349 96.5057 20.6698C96.8686 20.8047 97.0669 20.8775 97.106 20.8869C98.4029 21.1965 99.6037 21.8205 100.602 22.7039C101.295 23.4904 101.651 24.5172 101.594 25.5635C101.61 26.1864 101.477 26.8042 101.206 27.3655C100.936 27.9269 100.536 28.4157 100.038 28.7914C98.8624 29.6059 97.4503 30.0094 96.0215 29.9394Z" fill="#1470B4"/>
<path d="M111.497 29.9245C110.151 29.9529 108.828 29.577 107.697 28.8454C106.601 28.1196 105.732 27.0976 105.193 25.8981C104.601 24.5761 104.307 23.1403 104.332 21.6922C104.322 20.5795 104.491 19.4724 104.831 18.4131C105.135 17.4572 105.619 16.5681 106.257 15.7935C106.883 15.0483 107.67 14.4544 108.558 14.0562C109.518 13.6277 110.56 13.4132 111.612 13.4276C112.949 13.3852 114.267 13.7474 115.395 14.4668C116.522 15.1861 117.407 16.2292 117.931 17.4594C118.496 18.7884 118.775 20.2214 118.749 21.6652C118.775 23.1182 118.489 24.5598 117.91 25.8927C117.377 27.096 116.507 28.1192 115.405 28.8387C114.239 29.5806 112.879 29.9586 111.497 29.9245ZM111.632 28.492C112.685 28.5253 113.718 28.2011 114.563 27.5721C115.367 26.9496 115.971 26.1056 116.301 25.144C116.679 24.0306 116.862 22.86 116.84 21.6841C116.925 19.9437 116.471 18.2195 115.539 16.7472C115.091 16.1243 114.492 15.6258 113.798 15.2989C113.104 14.972 112.338 14.8275 111.573 14.879C110.507 14.847 109.461 15.1759 108.605 15.8124C107.787 16.4396 107.167 17.289 106.818 18.2593C106.424 19.3718 106.233 20.546 106.254 21.7259C106.18 23.4537 106.665 25.1594 107.637 26.59C108.091 27.2147 108.694 27.716 109.391 28.0481C110.088 28.3803 110.857 28.5329 111.628 28.492H111.632Z" fill="#1470B4"/>
<path d="M126.278 29.9097C125.223 30.001 124.174 29.6767 123.354 29.0059C123.012 28.6011 122.753 28.1321 122.594 27.6262C122.435 27.1204 122.378 26.5879 122.427 26.0599V7.54235L124.194 7.39666V25.9561C124.119 26.6644 124.307 27.3757 124.723 27.9538C124.938 28.1504 125.191 28.3007 125.466 28.3954C125.741 28.4901 126.033 28.5271 126.323 28.5041C127.058 28.4814 127.787 28.3696 128.495 28.1709L128.566 29.5617C127.819 29.7643 127.052 29.8811 126.278 29.9097Z" fill="#1470B4"/>
<path d="M134.937 29.9245C133.643 29.9914 132.369 29.5907 131.346 28.7955C130.89 28.3959 130.532 27.8973 130.298 27.3378C130.064 26.7784 129.961 26.1728 129.997 25.5676C129.981 24.8129 130.167 24.0675 130.537 23.4093C130.91 22.7805 131.448 22.2652 132.092 21.9188C132.825 21.5176 133.609 21.2181 134.423 21.0286C135.425 20.7965 136.445 20.6463 137.472 20.5794C138.706 20.502 139.623 20.4391 140.222 20.3905V18.6248C140.296 17.6386 139.999 16.6603 139.39 15.8812C139.035 15.5477 138.613 15.2933 138.153 15.1348C137.693 14.9762 137.204 14.917 136.719 14.9612C135.074 14.9529 133.454 15.3667 132.014 16.1631C131.975 16.066 131.885 15.856 131.744 15.5332C131.603 15.2103 131.504 14.9617 131.447 14.7872C132.175 14.3469 132.966 14.0199 133.792 13.8174C134.715 13.5636 135.667 13.4325 136.624 13.4276C138.097 13.2889 139.566 13.7275 140.721 14.651C141.685 15.8791 142.132 17.4351 141.966 18.9877V29.5846H140.562C140.512 29.3634 140.443 28.9245 140.353 28.2681C140.263 27.6116 140.218 27.2739 140.218 27.2551C139.639 28.1136 138.849 28.8096 137.925 29.2768C137 29.7441 135.972 29.967 134.937 29.9245ZM134.995 28.492C136.184 28.5069 137.344 28.1216 138.288 27.398C139.262 26.6472 139.932 25.57 140.176 24.3644V21.6571L138.077 21.8311C136.379 21.875 134.708 22.2695 133.17 22.9899C132.724 23.2564 132.36 23.6405 132.117 24.1001C131.875 24.5598 131.763 25.0772 131.795 25.5959C131.765 26.0007 131.829 26.407 131.981 26.7835C132.132 27.1601 132.368 27.4967 132.671 27.7676C133.335 28.2768 134.158 28.5335 134.994 28.492H134.995Z" fill="#1470B4"/>
<path d="M68.3233 12.4294C68.1988 12.4283 68.0772 12.3915 67.973 12.3233C67.8688 12.2551 67.7864 12.1585 67.7355 12.0448C67.6847 11.9311 67.6675 11.8053 67.6861 11.6821C67.7047 11.559 67.7583 11.4438 67.8404 11.3503L70.2253 8.71857C70.2824 8.65507 70.3515 8.60344 70.4285 8.56663C70.5056 8.52982 70.5892 8.50855 70.6745 8.50404C70.7598 8.49953 70.8452 8.51187 70.9257 8.54035C71.0062 8.56882 71.0804 8.61289 71.1439 8.67002C71.2074 8.72714 71.259 8.79621 71.2958 8.87329C71.3326 8.95037 71.3539 9.03395 71.3584 9.11925C71.3629 9.20455 71.3505 9.28991 71.3221 9.37044C71.2936 9.45097 71.2495 9.52511 71.1924 9.58861L68.8062 12.2216C68.7447 12.288 68.6699 12.3408 68.5867 12.3766C68.5036 12.4124 68.4139 12.4303 68.3233 12.4294Z" fill="#1470B4"/>
</svg>
